<svg width="28" height="23" viewBox="0 0 28 23" fill="none" xmlns="http://www.w3.org/2000/svg">
<mask id="path-1-outside-1_5561_42529" maskUnits="userSpaceOnUse" x="0" y="0" width="28" height="23" fill="black">
<rect fill="white" width="28" height="23"/>
<path fill-rule="evenodd" clip-rule="evenodd" d="M13.5965 1C15.917 1 17.7977 2.77338 17.7977 4.96139C17.7977 6.50792 15.5802 10.0242 14.364 11.9529L14.364 11.9529L14.364 11.9529C13.9488 12.6112 13.6503 13.0846 13.5965 13.2314C13.5429 13.0841 13.2427 12.6081 12.8254 11.9463C11.6085 10.0162 9.39526 6.50616 9.39526 4.96139C9.39526 2.77338 11.276 1 13.5965 1ZM13.5965 3.24479C12.591 3.24479 11.776 4.0133 11.776 4.96139C11.776 5.90948 12.591 6.67799 13.5965 6.67799C14.602 6.67799 15.417 5.90948 15.417 4.96139C15.417 4.0133 14.602 3.24479 13.5965 3.24479ZM13.5966 13.2803C13.6088 13.2803 13.6074 13.2631 13.5966 13.2314C13.5857 13.2631 13.5857 13.2803 13.5966 13.2803ZM11.6167 13.1338C9.26403 13.5695 7.57654 14.206 7.57654 15.129C7.57654 16.2963 10.2723 17.2417 13.5983 17.2417C16.9243 17.2417 19.62 16.2963 19.62 15.129C19.62 14.206 17.9312 13.5709 15.5799 13.1338C14.5478 15.6466 12.6474 15.6466 11.6167 13.1338ZM17.1691 10.4998C17.4058 10.0944 17.6383 9.68376 17.8623 9.27441C22.7665 10.1169 26.1947 12.3894 26.1933 15.128C26.1933 18.6074 20.6603 21.3342 13.5967 21.3342C6.53301 21.3342 1 18.6074 1 15.128C1 12.3894 4.4282 10.1169 9.33243 9.27441C9.5579 9.68376 9.79036 10.0944 10.0256 10.4998C5.34967 11.1996 2.40041 13.2186 2.40041 15.128C2.40041 17.4877 6.90132 20.0137 13.5981 20.0137C20.2948 20.0137 24.7943 17.4877 24.7943 15.128C24.7943 13.2186 21.8451 11.1996 17.1691 10.4998Z"/>
</mask>
<path fill-rule="evenodd" clip-rule="evenodd" d="M13.5965 1C15.917 1 17.7977 2.77338 17.7977 4.96139C17.7977 6.50792 15.5802 10.0242 14.364 11.9529L14.364 11.9529L14.364 11.9529C13.9488 12.6112 13.6503 13.0846 13.5965 13.2314C13.5429 13.0841 13.2427 12.6081 12.8254 11.9463C11.6085 10.0162 9.39526 6.50616 9.39526 4.96139C9.39526 2.77338 11.276 1 13.5965 1ZM13.5965 3.24479C12.591 3.24479 11.776 4.0133 11.776 4.96139C11.776 5.90948 12.591 6.67799 13.5965 6.67799C14.602 6.67799 15.417 5.90948 15.417 4.96139C15.417 4.0133 14.602 3.24479 13.5965 3.24479ZM13.5966 13.2803C13.6088 13.2803 13.6074 13.2631 13.5966 13.2314C13.5857 13.2631 13.5857 13.2803 13.5966 13.2803ZM11.6167 13.1338C9.26403 13.5695 7.57654 14.206 7.57654 15.129C7.57654 16.2963 10.2723 17.2417 13.5983 17.2417C16.9243 17.2417 19.62 16.2963 19.62 15.129C19.62 14.206 17.9312 13.5709 15.5799 13.1338C14.5478 15.6466 12.6474 15.6466 11.6167 13.1338ZM17.1691 10.4998C17.4058 10.0944 17.6383 9.68376 17.8623 9.27441C22.7665 10.1169 26.1947 12.3894 26.1933 15.128C26.1933 18.6074 20.6603 21.3342 13.5967 21.3342C6.53301 21.3342 1 18.6074 1 15.128C1 12.3894 4.4282 10.1169 9.33243 9.27441C9.5579 9.68376 9.79036 10.0944 10.0256 10.4998C5.34967 11.1996 2.40041 13.2186 2.40041 15.128C2.40041 17.4877 6.90132 20.0137 13.5981 20.0137C20.2948 20.0137 24.7943 17.4877 24.7943 15.128C24.7943 13.2186 21.8451 11.1996 17.1691 10.4998Z" fill="#FFA082"/>
<path d="M14.364 11.9529L15.196 12.5076L15.2031 12.497L15.2098 12.4863L14.364 11.9529ZM14.364 11.9529L13.5319 11.3982L13.5249 11.4087L13.5181 11.4195L14.364 11.9529ZM13.5965 13.2314L12.6568 13.5735L13.5934 16.1463L14.5354 13.5755L13.5965 13.2314ZM12.8254 11.9463L11.9795 12.4797L11.9795 12.4797L12.8254 11.9463ZM13.5966 13.2314L14.5426 12.9075L13.5965 10.1446L12.6505 12.9075L13.5966 13.2314ZM11.6167 13.1338L12.5419 12.7543L12.2336 12.0025L11.4346 12.1505L11.6167 13.1338ZM15.5799 13.1338L15.7626 12.1506L14.9636 12.0021L14.6549 12.7539L15.5799 13.1338ZM17.8623 9.27441L18.0316 8.28885L17.3279 8.16797L16.9851 8.79427L17.8623 9.27441ZM17.1691 10.4998L16.3055 9.99562L15.5613 11.2703L17.0211 11.4888L17.1691 10.4998ZM26.1933 15.128L25.1933 15.1275V15.128H26.1933ZM9.33243 9.27441L10.2084 8.79196L9.86484 8.16831L9.16313 8.28885L9.33243 9.27441ZM10.0256 10.4998L10.1737 11.4888L11.6294 11.2709L10.8905 9.99785L10.0256 10.4998ZM18.7977 4.96139C18.7977 2.16653 16.4131 0 13.5965 0V2C15.4209 2 16.7977 3.38023 16.7977 4.96139H18.7977ZM15.2098 12.4863C15.8153 11.5263 16.6922 10.1363 17.4177 8.78749C17.7803 8.11319 18.1158 7.42968 18.3629 6.80084C18.6001 6.19749 18.7977 5.5432 18.7977 4.96139H16.7977C16.7977 5.15284 16.7182 5.51803 16.5015 6.06923C16.2949 6.59492 16 7.20101 15.6562 7.84018C14.9689 9.11829 14.129 10.4508 13.5181 11.4195L15.2098 12.4863ZM15.196 12.5076L15.196 12.5076L13.5319 11.3982L13.5319 11.3982L15.196 12.5076ZM15.196 12.5076L15.196 12.5076L13.5319 11.3982L13.5319 11.3982L15.196 12.5076ZM14.5354 13.5755C14.5188 13.621 14.5116 13.6255 14.5539 13.5497C14.587 13.4904 14.6349 13.4092 14.699 13.3038C14.8271 13.0932 15.0006 12.8182 15.2098 12.4863L13.5181 11.4195C13.3122 11.746 13.1288 12.0368 12.9904 12.2642C12.878 12.4489 12.7261 12.7003 12.6576 12.8874L14.5354 13.5755ZM11.9795 12.4797C12.1899 12.8132 12.3642 13.0898 12.493 13.3015C12.5574 13.4074 12.6055 13.489 12.6387 13.5485C12.6812 13.6249 12.6737 13.6199 12.6568 13.5735L14.5362 12.8894C14.4675 12.7008 14.3144 12.4475 14.2017 12.2621C14.0626 12.0335 13.8783 11.7411 13.6713 11.4129L11.9795 12.4797ZM8.39526 4.96139C8.39526 5.54267 8.59259 6.19617 8.82936 6.79877C9.07614 7.42682 9.41108 8.10944 9.77324 8.78295C10.4977 10.1302 11.3738 11.519 11.9795 12.4797L13.6713 11.4129C13.0601 10.4436 12.2211 9.11227 11.5347 7.83577C11.1915 7.1974 10.8971 6.59223 10.6908 6.06736C10.4746 5.51704 10.3953 5.15249 10.3953 4.96139H8.39526ZM13.5965 0C10.7799 0 8.39526 2.16653 8.39526 4.96139H10.3953C10.3953 3.38023 11.7721 2 13.5965 2V0ZM12.776 4.96139C12.776 4.62015 13.0871 4.24479 13.5965 4.24479V2.24479C12.0949 2.24479 10.776 3.40644 10.776 4.96139H12.776ZM13.5965 5.67799C13.0871 5.67799 12.776 5.30263 12.776 4.96139H10.776C10.776 6.51633 12.0949 7.67799 13.5965 7.67799V5.67799ZM14.417 4.96139C14.417 5.30263 14.1059 5.67799 13.5965 5.67799V7.67799C15.0981 7.67799 16.417 6.51633 16.417 4.96139H14.417ZM13.5965 4.24479C14.1059 4.24479 14.417 4.62015 14.417 4.96139H16.417C16.417 3.40645 15.0981 2.24479 13.5965 2.24479V4.24479ZM13.5966 14.2803C13.8657 14.2803 14.2106 14.1648 14.4322 13.8365C14.6042 13.5816 14.6067 13.3301 14.605 13.2472C14.6014 13.0692 14.5495 12.9274 14.5426 12.9075L12.6505 13.5554C12.6472 13.5456 12.639 13.521 12.6307 13.4868C12.624 13.4589 12.6074 13.3857 12.6054 13.2883C12.6039 13.2137 12.6051 12.9685 12.7743 12.7178C12.9931 12.3936 13.3335 12.2803 13.5966 12.2803V14.2803ZM12.6505 12.9075C12.6375 12.9456 12.5884 13.0872 12.5884 13.2678C12.5884 13.3508 12.5966 13.581 12.7499 13.8189C12.9499 14.1291 13.2816 14.2803 13.5966 14.2803V12.2803C13.7287 12.2803 13.8914 12.3072 14.0559 12.3931C14.2232 12.4804 14.3472 12.6053 14.431 12.7354C14.5816 12.9691 14.5884 13.193 14.5884 13.2678C14.5884 13.4318 14.5449 13.549 14.5427 13.5554L12.6505 12.9075ZM8.57654 15.129C8.57654 15.2341 8.51998 15.2608 8.58644 15.1939C8.66382 15.116 8.82941 14.9963 9.13188 14.8574C9.73441 14.5805 10.6478 14.3303 11.7988 14.1171L11.4346 12.1505C10.2329 12.3731 9.12625 12.6589 8.29686 13.04C7.88337 13.23 7.48004 13.4698 7.1675 13.7844C6.84404 14.11 6.57654 14.5624 6.57654 15.129H8.57654ZM13.5983 16.2417C12.0172 16.2417 10.6289 16.0155 9.67121 15.6795C9.18778 15.5099 8.86783 15.331 8.68822 15.182C8.50254 15.0279 8.57654 15.0051 8.57654 15.129H6.57654C6.57654 15.8366 6.98751 16.3697 7.41122 16.7212C7.84101 17.0778 8.40289 17.3541 9.00915 17.5667C10.2308 17.9953 11.8534 18.2417 13.5983 18.2417V16.2417ZM18.62 15.129C18.62 15.0051 18.694 15.0279 18.5084 15.182C18.3288 15.331 18.0088 15.5099 17.5254 15.6795C16.5677 16.0155 15.1793 16.2417 13.5983 16.2417V18.2417C15.3432 18.2417 16.9657 17.9953 18.1874 17.5667C18.7937 17.3541 19.3556 17.0778 19.7854 16.7212C20.2091 16.3697 20.62 15.8366 20.62 15.129H18.62ZM15.3971 14.1169C16.5478 14.3309 17.4615 14.5811 18.0644 14.858C18.3671 14.9969 18.5329 15.1166 18.6103 15.1944C18.6768 15.2613 18.62 15.2345 18.62 15.129H20.62C20.62 14.562 20.3521 14.1097 20.0285 13.7842C19.7158 13.4698 19.3124 13.2302 18.8989 13.0404C18.0697 12.6596 16.9632 12.3738 15.7626 12.1506L15.3971 14.1169ZM10.6915 13.5133C11.255 14.8871 12.2385 16.0184 13.5978 16.0184C14.9568 16.0184 15.9407 14.8874 16.5049 13.5137L14.6549 12.7539C14.187 13.893 13.7046 14.0184 13.5978 14.0184C13.4911 14.0184 13.0091 13.8934 12.5419 12.7543L10.6915 13.5133ZM16.9851 8.79427C16.7657 9.19523 16.5377 9.59788 16.3055 9.99562L18.0327 11.004C18.2738 10.591 18.5109 10.1723 18.7395 9.75456L16.9851 8.79427ZM27.1933 15.1285C27.1943 13.3018 26.0494 11.7824 24.436 10.6675C22.8123 9.54545 20.5796 8.72655 18.0316 8.28885L17.693 10.26C20.0493 10.6647 21.9828 11.4033 23.2989 12.3128C24.6253 13.2294 25.1938 14.2156 25.1933 15.1275L27.1933 15.1285ZM13.5967 22.3342C17.2432 22.3342 20.5513 21.6325 22.9859 20.4329C25.3668 19.2598 27.1933 17.4488 27.1933 15.128H25.1933C25.1933 16.2867 24.2534 17.5788 22.1019 18.6389C20.0041 19.6725 17.0139 20.3342 13.5967 20.3342V22.3342ZM0 15.128C0 17.4488 1.82656 19.2598 4.20748 20.4329C6.64207 21.6325 9.9502 22.3342 13.5967 22.3342V20.3342C10.1795 20.3342 7.18928 19.6725 5.09145 18.6389C2.93995 17.5788 2 16.2867 2 15.128H0ZM9.16313 8.28885C6.61512 8.72655 4.38248 9.54545 2.75867 10.6674C1.14512 11.7823 0 13.3015 0 15.128H2C2 14.2159 2.56898 13.2295 3.89559 12.3129C5.21193 11.4033 7.14551 10.6647 9.50173 10.26L9.16313 8.28885ZM10.8905 9.99785C10.6588 9.59865 10.4301 9.19449 10.2084 8.79196L8.45651 9.75687C8.68573 10.173 8.92188 10.5902 9.16074 11.0018L10.8905 9.99785ZM3.40041 15.128C3.40041 14.6983 3.76467 13.9783 4.99173 13.207C6.16737 12.4679 7.93318 11.8241 10.1737 11.4888L9.87761 9.51082C7.44212 9.87534 5.39532 10.5909 3.92734 11.5137C2.51078 12.4042 1.40041 13.6484 1.40041 15.128H3.40041ZM13.5981 19.0137C10.3651 19.0137 7.71733 18.4025 5.9149 17.5515C5.01201 17.1252 4.35741 16.656 3.94203 16.2074C3.5249 15.757 3.40041 15.3879 3.40041 15.128H1.40041C1.40041 16.048 1.83853 16.8795 2.4746 17.5664C3.11241 18.2551 4.00158 18.8598 5.06102 19.36C7.18324 20.362 10.1343 21.0137 13.5981 21.0137V19.0137ZM23.7943 15.128C23.7943 15.388 23.6698 15.7571 23.2529 16.2075C22.8376 16.6561 22.1832 17.1252 21.2805 17.5515C19.4784 18.4025 16.8311 19.0137 13.5981 19.0137V21.0137C17.0618 21.0137 20.0126 20.362 22.1345 19.36C23.1938 18.8598 24.0828 18.255 24.7205 17.5663C25.3564 16.8794 25.7943 16.0479 25.7943 15.128H23.7943ZM17.0211 11.4888C19.2616 11.8241 21.0274 12.4679 22.203 13.207C23.4301 13.9783 23.7943 14.6983 23.7943 15.128H25.7943C25.7943 13.6484 24.684 12.4042 23.2674 11.5137C21.7994 10.5909 19.7526 9.87534 17.3171 9.51082L17.0211 11.4888Z" fill="#112C44" mask="url(#path-1-outside-1_5561_42529)"/>
</svg>
